# xmcd CD database file generated by Grip 3.2.0
# 
# Track frame offsets:
#       150
#       23545
#       47137
#       65250
#       83775
#       94500
#       114987
#       138887
#       155975
#       178700
#       200337
# 
# Disc length: 2874 seconds
# 
# Revision: 1
# Processed by: cddbd v1.5.1PL2 Copyright (c) Steve Scherf et al.
# Submitted via: Grip 3.2.0
# 
DISCID=870b380b
DTITLE=THE BUBBLE GUM BROTHERS - 内黒SOUL大臣
DYEAR=1900
DGENRE=Blues
TTITLE0=SOUL大臣
TTITLE1=恋はI MY ME MINE
TTITLE2=渚のバード・ウォッチング
TTITLE3=Hは二人の合言葉
TTITLE4=とめどなくレゲー
TTITLE5=俺のジェリービーンズ
TTITLE6=フーチークーチーMOON
TTITLE7=おたかくとまれ
TTITLE8=ハトバスストップ
TTITLE9=気付いた時にはせつなくて
TTITLE10=君と踊ろう'88〜'89
EXTD=
EXTT0=
EXTT1=
EXTT2=
EXTT3=
EXTT4=
EXTT5=
EXTT6=
EXTT7=
EXTT8=
EXTT9=
EXTT10=
PLAYORDER=
